<?xml version="1.0" encoding="UTF-8"?>
<svg width="512px" height="512px" viewBox="0 0 512 512" version="1.1" xmlns="http://www.w3.org/2000/svg" xmlns:xlink="http://www.w3.org/1999/xlink">
    <!-- Generator: Sketch 50.2 (55047) - http://www.bohemiancoding.com/sketch -->
    <title>icon-mask</title>
    <desc>Created with Sketch.</desc>
    <defs></defs>
    <g id="icon-mask" stroke="none" stroke-width="1" fill="none" fill-rule="evenodd">
        <g id="noun_1405780_cc" transform="translate(0.000000, 84.000000)" fill="#000000" fill-rule="nonzero">
            <path d="M511.15434,299.112825 C511.15434,277.144086 511.15434,254.330396 511.15434,232.361658 C511.15434,225.602046 510.30868,223.067191 502.697743,222.22224 C475.636631,218.842434 457.877776,198.563598 458.723435,172.370102 C459.569095,143.641752 481.556249,122.517965 512,120.828062 C512,119.98311 512,119.138159 512,118.293208 C512,96.324469 512,73.510779 512,51.5420404 C512,17.7439811 496.778124,1.68990296 462.951734,1.68990296 C389.379336,1.68990296 314.961277,0.844951482 241.388879,0.844951482 C176.273078,0.844951482 110.311617,0 45.1958157,0 C17.2890439,0 0.37584878,16.8990296 0.37584878,44.7824286 C0.37584878,66.7511671 0.37584878,87.8749542 0.37584878,108.998741 C0.37584878,115.758353 0.37584878,119.98311 9.67810607,121.673013 C22.3630024,123.362916 32.5109194,130.122528 40.1218572,141.951849 C59.5720316,174.060005 44.350156,212.082822 7.98678657,220.532337 C3.7584878,221.377288 0.37584878,221.377288 0.37584878,228.1369 C0.37584878,253.485445 -0.469810974,278.833989 0.37584878,304.182534 C1.22150853,325.306321 18.1347036,342.20535 40.1218572,342.20535 C183.038356,343.050302 325.954854,343.050302 468.025693,343.050302 C494.241145,342.20535 511.15434,325.306321 511.15434,299.112825 Z M156.822903,29.5733019 C154.285924,29.5733019 152.594605,28.7283504 150.903285,27.0384474 C149.211965,25.3485445 148.366306,23.6586415 148.366306,21.1237871 L148.366306,12.6742722 C148.366306,7.60456334 151.748945,4.22475741 156.822903,4.22475741 C161.896862,4.22475741 165.279501,8.44951482 165.279501,12.6742722 L165.279501,21.1237871 C165.279501,26.193496 161.051202,29.5733019 156.822903,29.5733019 Z M155.977244,75.2006819 C153.440264,75.2006819 151.748945,74.3557304 150.057625,72.6658275 C148.366306,70.9759245 147.520646,69.2860215 147.520646,66.7511671 L147.520646,49.007186 C147.520646,43.9374771 150.903285,40.5576712 155.977244,40.5576712 C161.051202,40.5576712 164.433841,44.7824286 164.433841,49.007186 L164.433841,66.7511671 C164.433841,70.9759245 161.051202,75.2006819 155.977244,75.2006819 Z M155.977244,119.98311 C153.440264,119.98311 151.748945,119.138159 150.057625,117.448256 C148.366306,115.758353 147.520646,114.06845 147.520646,111.533596 L147.520646,93.7896145 C147.520646,88.7199056 150.903285,85.3400997 155.977244,85.3400997 C161.051202,85.3400997 164.433841,89.5648571 164.433841,93.7896145 L164.433841,111.533596 C164.433841,115.758353 161.051202,119.98311 155.977244,119.98311 Z M155.977244,164.765539 C153.440264,164.765539 151.748945,163.920588 150.057625,162.230685 C148.366306,160.540782 147.520646,158.850879 147.520646,156.316024 L147.520646,138.572043 C147.520646,133.502334 150.903285,130.122528 155.977244,130.122528 C161.051202,130.122528 164.433841,133.502334 164.433841,138.572043 L164.433841,156.316024 C164.433841,160.540782 161.051202,164.765539 155.977244,164.765539 Z M155.977244,209.547968 C153.440264,209.547968 151.748945,208.703016 150.057625,207.013113 C148.366306,205.32321 147.520646,203.633307 147.520646,201.098453 L147.520646,183.354472 C147.520646,178.284763 150.903285,174.904957 155.977244,174.904957 C161.051202,174.904957 164.433841,178.284763 164.433841,183.354472 L164.433841,201.098453 C164.433841,205.32321 160.205542,209.547968 155.977244,209.547968 Z M155.977244,254.330396 C153.440264,254.330396 151.748945,253.485445 150.057625,251.795542 C148.366306,250.105639 147.520646,248.415736 147.520646,245.880881 L147.520646,228.1369 C147.520646,223.067191 151.748945,219.687385 155.977244,219.687385 C161.051202,219.687385 164.433841,223.067191 164.433841,228.1369 L164.433841,245.880881 C164.433841,250.105639 160.205542,254.330396 155.977244,254.330396 Z M155.977244,299.112825 C153.440264,299.112825 151.748945,298.267873 150.057625,296.57797 C148.366306,294.888067 147.520646,293.198164 147.520646,290.66331 L147.520646,272.919329 C147.520646,267.84962 150.903285,264.469814 155.977244,264.469814 C161.051202,264.469814 164.433841,268.694571 164.433841,272.919329 L164.433841,290.66331 C164.433841,294.888067 160.205542,299.112825 155.977244,299.112825 Z M155.131584,334.600787 C152.594605,334.600787 150.903285,333.755836 149.211965,332.065933 C147.520646,330.37603 146.674986,328.686127 146.674986,326.151272 L146.674986,317.701757 C146.674986,312.632048 150.057625,309.252243 155.131584,309.252243 C160.205542,309.252243 163.588181,313.477 163.588181,317.701757 L163.588181,326.151272 C163.588181,330.37603 160.205542,334.600787 155.131584,334.600787 Z" id="Shape"></path>
        </g>
    </g>
</svg>