<?xml version="1.0" encoding="UTF-8"?>
<svg width="512px" height="512px" viewBox="0 0 512 512" version="1.1" xmlns="http://www.w3.org/2000/svg" xmlns:xlink="http://www.w3.org/1999/xlink">
    <!-- Generator: Sketch 50.2 (55047) - http://www.bohemiancoding.com/sketch -->
    <title>icon</title>
    <desc>Created with Sketch.</desc>
    <defs></defs>
    <g id="icon" stroke="none" stroke-width="1" fill="none" fill-rule="evenodd">
        <g>
            <circle id="Oval-Copy" fill="#1264F6" cx="256" cy="256" r="256"></circle>
            <g id="coupon" transform="translate(93.000000, 147.000000)" fill="#FFFFFF" fill-rule="nonzero">
                <path d="M325.461553,190.078818 C325.461553,176.118227 325.461553,161.62069 325.461553,147.660099 C325.461553,143.364532 324.923105,141.753695 320.077078,141.216749 C302.846761,139.068966 291.539365,126.182266 292.077812,109.536946 C292.61626,91.2807882 306.615893,77.8571429 326,76.7832512 C326,76.2463054 326,75.7093596 326,75.1724138 C326,61.2118227 326,46.7142857 326,32.7536946 C326,11.2758621 316.307946,1.07389163 294.77005,1.07389163 C247.925124,1.07389163 200.541751,0.536945813 153.696825,0.536945813 C112.236374,0.536945813 70.2374748,0 28.7770233,0 C11.0082584,0 0.239309965,10.7389163 0.239309965,28.4581281 C0.239309965,42.4187192 0.239309965,55.8423645 0.239309965,69.2660099 C0.239309965,73.5615764 0.239309965,76.2463054 6.1622316,77.320197 C14.2389429,78.3940887 20.700312,82.6896552 25.5463388,90.2068966 C37.9306295,110.610837 28.2385759,134.773399 5.08533676,140.142857 C2.39309965,140.679803 0.239309965,140.679803 0.239309965,144.975369 C0.239309965,161.083744 -0.299137456,177.192118 0.239309965,193.300493 C0.777757387,206.724138 11.5467058,217.463054 25.5463388,217.463054 C116.543953,218 207.541567,218 298.000734,218 C314.692604,217.463054 325.461553,206.724138 325.461553,190.078818 Z M99.852083,18.7931034 C98.2367407,18.7931034 97.1598458,18.2561576 96.082951,17.182266 C95.0060562,16.1083744 94.4676087,15.0344828 94.4676087,13.4236453 L94.4676087,8.05418719 C94.4676087,4.83251232 96.6213984,2.68472906 99.852083,2.68472906 C103.082767,2.68472906 105.236557,5.36945813 105.236557,8.05418719 L105.236557,13.4236453 C105.236557,16.6453202 102.54432,18.7931034 99.852083,18.7931034 Z M99.3136355,47.7881773 C97.6982933,47.7881773 96.6213984,47.2512315 95.5445036,46.1773399 C94.4676087,45.1034483 93.9291613,44.0295567 93.9291613,42.4187192 L93.9291613,31.1428571 C93.9291613,27.9211823 96.082951,25.773399 99.3136355,25.773399 C102.54432,25.773399 104.69811,28.4581281 104.69811,31.1428571 L104.69811,42.4187192 C104.69811,45.1034483 102.54432,47.7881773 99.3136355,47.7881773 Z M99.3136355,76.2463054 C97.6982933,76.2463054 96.6213984,75.7093596 95.5445036,74.635468 C94.4676087,73.5615764 93.9291613,72.4876847 93.9291613,70.8768473 L93.9291613,59.6009852 C93.9291613,56.3793103 96.082951,54.2315271 99.3136355,54.2315271 C102.54432,54.2315271 104.69811,56.9162562 104.69811,59.6009852 L104.69811,70.8768473 C104.69811,73.5615764 102.54432,76.2463054 99.3136355,76.2463054 Z M99.3136355,104.704433 C97.6982933,104.704433 96.6213984,104.167488 95.5445036,103.093596 C94.4676087,102.019704 93.9291613,100.945813 93.9291613,99.3349754 L93.9291613,88.0591133 C93.9291613,84.8374384 96.082951,82.6896552 99.3136355,82.6896552 C102.54432,82.6896552 104.69811,84.8374384 104.69811,88.0591133 L104.69811,99.3349754 C104.69811,102.019704 102.54432,104.704433 99.3136355,104.704433 Z M99.3136355,133.162562 C97.6982933,133.162562 96.6213984,132.625616 95.5445036,131.551724 C94.4676087,130.477833 93.9291613,129.403941 93.9291613,127.793103 L93.9291613,116.517241 C93.9291613,113.295567 96.082951,111.147783 99.3136355,111.147783 C102.54432,111.147783 104.69811,113.295567 104.69811,116.517241 L104.69811,127.793103 C104.69811,130.477833 102.005873,133.162562 99.3136355,133.162562 Z M99.3136355,161.62069 C97.6982933,161.62069 96.6213984,161.083744 95.5445036,160.009852 C94.4676087,158.935961 93.9291613,157.862069 93.9291613,156.251232 L93.9291613,144.975369 C93.9291613,141.753695 96.6213984,139.605911 99.3136355,139.605911 C102.54432,139.605911 104.69811,141.753695 104.69811,144.975369 L104.69811,156.251232 C104.69811,158.935961 102.005873,161.62069 99.3136355,161.62069 Z M99.3136355,190.078818 C97.6982933,190.078818 96.6213984,189.541872 95.5445036,188.46798 C94.4676087,187.394089 93.9291613,186.320197 93.9291613,184.70936 L93.9291613,173.433498 C93.9291613,170.211823 96.082951,168.064039 99.3136355,168.064039 C102.54432,168.064039 104.69811,170.748768 104.69811,173.433498 L104.69811,184.70936 C104.69811,187.394089 102.005873,190.078818 99.3136355,190.078818 Z M98.7751881,212.630542 C97.1598458,212.630542 96.082951,212.093596 95.0060562,211.019704 C93.9291613,209.945813 93.3907139,208.871921 93.3907139,207.261084 L93.3907139,201.891626 C93.3907139,198.669951 95.5445036,196.522167 98.7751881,196.522167 C102.005873,196.522167 104.159662,199.206897 104.159662,201.891626 L104.159662,207.261084 C104.159662,209.945813 102.005873,212.630542 98.7751881,212.630542 Z" id="Shape"></path>
            </g>
        </g>
    </g>
</svg>